<?xml version="1.0" encoding="UTF-8" standalone="no"?>
<!-- Created with Inkscape (http://www.inkscape.org/) -->

<svg
   width="64.000275"
   height="64.000275"
   viewBox="0 0 11.607395 11.607395"
   version="1.1"
   id="svg1"
   inkscape:version="1.4.2 (f4327f4, 2025-05-13)"
   sodipodi:docname="CGI.svg"
   xmlns:inkscape="http://www.inkscape.org/namespaces/inkscape"
   xmlns:sodipodi="http://sodipodi.sourceforge.net/DTD/sodipodi-0.dtd"
   xmlns:xlink="http://www.w3.org/1999/xlink"
   xmlns="http://www.w3.org/2000/svg"
   xmlns:svg="http://www.w3.org/2000/svg">
  <sodipodi:namedview
     id="namedview1"
     pagecolor="#ffffff"
     bordercolor="#000000"
     borderopacity="0.25"
     inkscape:showpageshadow="2"
     inkscape:pageopacity="0.0"
     inkscape:pagecheckerboard="0"
     inkscape:deskcolor="#d1d1d1"
     inkscape:document-units="pt"
     inkscape:zoom="8"
     inkscape:cx="7"
     inkscape:cy="25.3125"
     inkscape:window-width="2560"
     inkscape:window-height="1369"
     inkscape:window-x="1912"
     inkscape:window-y="-8"
     inkscape:window-maximized="1"
     inkscape:current-layer="layer1"
     showguides="true"
     inkscape:clip-to-page="true" />
  <defs
     id="defs1">
    <inkscape:path-effect
       effect="powerclip"
       message=""
       id="path-effect15"
       is_visible="true"
       lpeversion="1"
       inverse="true"
       flatten="false"
       hide_clip="false" />
    <inkscape:path-effect
       effect="powerclip"
       message=""
       id="path-effect10"
       is_visible="true"
       lpeversion="1"
       inverse="true"
       flatten="false"
       hide_clip="false" />
    <inkscape:path-effect
       effect="powerclip"
       message=""
       id="path-effect9"
       is_visible="true"
       lpeversion="1"
       inverse="true"
       flatten="false"
       hide_clip="false" />
    <inkscape:path-effect
       effect="powerclip"
       message=""
       id="path-effect8"
       is_visible="true"
       lpeversion="1"
       inverse="true"
       flatten="false"
       hide_clip="false" />
    <linearGradient
       id="linearGradient2"
       inkscape:collect="always">
      <stop
         style="stop-color:#a90022;stop-opacity:1;"
         offset="0.36549708"
         id="stop2" />
      <stop
         style="stop-color:#4900b6;stop-opacity:1;"
         offset="1"
         id="stop3" />
    </linearGradient>
    <linearGradient
       inkscape:collect="always"
       xlink:href="#linearGradient2"
       id="linearGradient3"
       x1="32.552544"
       y1="137.9288"
       x2="181.55592"
       y2="137.9288"
       gradientUnits="userSpaceOnUse"
       gradientTransform="matrix(0.07790021,0,0,0.07790021,30.016701,-607.33082)" />
    <mask
       maskUnits="userSpaceOnUse"
       id="mask6">
      <rect
         style="fill:#ffffff;fill-opacity:1;stroke-width:0.438761"
         id="rect6"
         width="34.767853"
         height="67.700951"
         x="40.141064"
         y="114.37898" />
    </mask>
    <clipPath
       clipPathUnits="userSpaceOnUse"
       id="clipPath8">
      <rect
         style="display:none;fill:#41d07d;fill-opacity:1;stroke-width:0.264583"
         id="rect8"
         width="17.115253"
         height="59.399998"
         x="127.12701"
         y="110.55791"
         d="m 127.12701,110.55791 h 17.11525 v 59.39999 h -17.11525 z" />
    </clipPath>
    <clipPath
       clipPathUnits="userSpaceOnUse"
       id="clipPath9">
      <circle
         style="display:block;fill:#41d07d;fill-opacity:1;stroke-width:0.18394"
         id="circle9"
         cx="117.01758"
         cy="139.35239"
         r="17.031355" />
    </clipPath>
    <mask
       maskUnits="userSpaceOnUse"
       id="mask10">
      <rect
         style="fill:#ffffff;fill-opacity:1;stroke-width:0.405445"
         id="rect10"
         width="36.069637"
         height="61.460762"
         x="91.360573"
         y="108.68351" />
    </mask>
    <clipPath
       clipPathUnits="userSpaceOnUse"
       id="clipPath10">
      <circle
         style="display:none;fill:#41d07d;fill-opacity:1;stroke-width:0.18394"
         id="circle10"
         cx="62.714302"
         cy="138.19788"
         r="17.031355" />
    </clipPath>
    <mask
       maskUnits="userSpaceOnUse"
       id="mask11">
      <rect
         style="fill:#ffffff;fill-opacity:1;stroke-width:0.396989"
         id="rect11"
         width="38.531654"
         height="59.399998"
         x="-72.823723"
         y="109.40339"
         transform="scale(-1,1)" />
    </mask>
    <clipPath
       clipPathUnits="userSpaceOnUse"
       id="clipPath15-7">
      <path
         id="path15-6"
         style="display:none;fill:#8d8d8d;fill-opacity:0.618421;stroke-width:0.109444"
         d="m 37.441959,-599.40828 v 1.67798 a 1.6012132,1.625753 0 0 0 -0.892301,-0.27559 1.6012132,1.625753 0 0 0 -1.60111,1.6259 1.6012132,1.625753 0 0 0 1.60111,1.62556 1.6012132,1.625753 0 0 0 0.892301,-0.27559 v 1.56923 h 2.821426 v -5.94749 z" />
      <path
         id="lpe_path-effect15-1"
         style="fill:#8d8d8d;fill-opacity:0.618421;stroke-width:0.109444"
         class="powerclip"
         d="m 29.189344,-603.81118 h 14.727391 v 14.79985 H 29.189344 Z m 8.252615,4.4029 v 1.67798 a 1.6012132,1.625753 0 0 0 -0.892301,-0.27559 1.6012132,1.625753 0 0 0 -1.60111,1.6259 1.6012132,1.625753 0 0 0 1.60111,1.62556 1.6012132,1.625753 0 0 0 0.892301,-0.27559 v 1.56923 h 2.821426 v -5.94749 z" />
    </clipPath>
    <inkscape:path-effect
       effect="powerclip"
       message=""
       id="path-effect15-8"
       is_visible="true"
       lpeversion="1"
       inverse="true"
       flatten="false"
       hide_clip="false" />
  </defs>
  <g
     inkscape:label="Laag 1"
     inkscape:groupmode="layer"
     id="layer1"
     transform="translate(-32.552549,602.38982)">
    <circle
       style="fill:url(#linearGradient3);stroke-width:0.0206111"
       id="path1"
       cx="38.356247"
       cy="-596.58612"
       r="5.8036981" />
    <rect
       style="fill:#ffffff;fill-opacity:1;stroke-width:0.0170459"
       id="rect7-7-1-4"
       width="0.87853372"
       height="4.8030424"
       x="41.372986"
       y="-598.91119" />
    <path
       id="rect7-7-1"
       style="fill:#ffffff;fill-opacity:1;stroke-width:0.0101014"
       d="m 39.807457,-598.90539 a 2.3625632,2.3987712 0 0 0 -2.362561,2.39856 2.3625632,2.3987712 0 0 0 2.362561,2.39886 2.3625632,2.3987712 0 0 0 0.888365,-0.17593 v -0.26933 h 6.21e-4 v -2.1224 h -0.618722 -0.774178 v 0.80551 h 0.694744 v 1.00752 a 1.6004459,1.624974 0 0 1 -0.194243,0.0118 1.6004459,1.624974 0 0 1 -1.600485,-1.62469 1.6004459,1.624974 0 0 1 1.600485,-1.62499 1.6004459,1.624974 0 0 1 0.891778,0.27523 v -0.90419 a 2.3625632,2.3987712 0 0 0 -0.888365,-0.17594 z" />
    <path
       id="path2"
       clip-path="none"
       style="fill:#ffffff;stroke-width:0.161484"
       d="m 36.420934,-598.90632 a 2.3625632,2.3987712 0 0 0 -2.362561,2.39886 2.3625632,2.3987712 0 0 0 2.362561,2.39887 2.3625632,2.3987712 0 0 0 0.888365,-0.17624 v -0.84214 a 1.6004459,1.624974 0 0 1 -0.891779,0.27555 1.6004459,1.624974 0 0 1 -1.600174,-1.62469 1.6004459,1.624974 0 0 1 1.600174,-1.62531 1.6004459,1.624974 0 0 1 0.891779,0.27553 v -0.90418 a 2.3625632,2.3987712 0 0 0 -0.888365,-0.17625 z" />
  </g>
</svg>
